<?xml version="1.0" encoding="utf-8"?>
<!-- Generator: Adobe Illustrator 25.2.3, SVG Export Plug-In . SVG Version: 6.00 Build 0)  -->
<svg version="1.1" id="图层_1" xmlns="http://www.w3.org/2000/svg" xmlns:xlink="http://www.w3.org/1999/xlink" x="0px" y="0px"
	 viewBox="0 0 800 800" style="enable-background:new 0 0 800 800;" xml:space="preserve">
<style type="text/css">
	.st0{fill:url(#SVGID_1_);stroke:#FF931E;stroke-width:10;stroke-miterlimit:10;}
	.st1{fill:url(#SVGID_2_);stroke:#FF931E;stroke-width:10;stroke-miterlimit:10;}
</style>
<g>
	<linearGradient id="SVGID_1_" gradientUnits="userSpaceOnUse" x1="146.8" y1="400" x2="407.12" y2="400">
		<stop  offset="0" style="stop-color:#FFFFFF"/>
		<stop  offset="0" style="stop-color:#000000"/>
	</linearGradient>
	<path class="st0" d="M407.1,207.9l-50.8,384.2H204.5l-57.7-384.2h105.4c12.2,105.8,21,195.4,26.2,268.6
		c5.2-74,10.6-139.8,16.4-197.2l6.9-71.4H407.1z"/>
	<linearGradient id="SVGID_2_" gradientUnits="userSpaceOnUse" x1="421.11" y1="400.005" x2="653.2" y2="400.005">
		<stop  offset="0" style="stop-color:#FFFFFF"/>
		<stop  offset="0" style="stop-color:#000000"/>
	</linearGradient>
	<path class="st1" d="M653.2,349.3h-99.9v-34.9c0-22-1-35.8-2.8-41.3c-1.9-5.5-6.4-8.3-13.5-8.3c-6.2,0-10.4,2.4-12.6,7.1
		c-2.2,4.8-3.3,16.9-3.3,36.5v184.4c0,17.2,1.1,28.6,3.3,34.1c2.2,5.5,6.6,8.2,13.3,8.2c7.3,0,12.2-3.1,14.8-9.2
		c2.6-6.2,3.9-18.2,3.9-36.1v-45.6h-20.2v-58.4h117v206.2h-62.8l-9.2-27.5c-6.8,11.9-15.4,20.8-25.8,26.7
		c-10.4,5.9-22.6,8.9-36.7,8.9c-16.8,0-32.5-4.1-47.1-12.2c-14.6-8.2-25.8-18.2-33.4-30.3c-7.6-12-12.4-24.6-14.2-37.8
		c-1.9-13.2-2.9-33-2.9-59.4V346.2c0-36.7,2-63.4,5.9-80c4-16.6,15.3-31.8,34-45.7c18.8-13.8,43-20.8,72.7-20.8
		c29.3,0,53.5,6,72.8,18c19.3,12,31.9,26.3,37.7,42.8s8.8,40.5,8.8,72L653.2,349.3L653.2,349.3z"/>
</g>
</svg>
